<svg width="88" height="88" viewBox="0 0 88 88" fill="none" xmlns="http://www.w3.org/2000/svg">
<g clip-path="url(#clip0_140_1003)">
<path d="M49.6446 25.1112C49.6446 25.1112 49.4224 24.889 49.3335 24.8001V63.0447C49.3335 63.0447 49.5335 62.8669 49.6446 62.7558C54.4446 57.9335 57.4224 51.2668 57.4224 43.9335C57.4224 36.6001 54.4446 29.9334 49.6446 25.1112ZM30.8001 30.5112V57.3557C34.0223 53.8002 35.9779 49.1113 35.9779 43.9335C35.9779 38.7557 34.0223 34.0446 30.8001 30.5112ZM49.6446 25.1112C49.6446 25.1112 49.4224 24.889 49.3335 24.8001V63.0447C49.3335 63.0447 49.5335 62.8669 49.6446 62.7558C54.4446 57.9335 57.4224 51.2668 57.4224 43.9335C57.4224 36.6001 54.4446 29.9334 49.6446 25.1112ZM49.6446 25.1112C49.6446 25.1112 49.4224 24.889 49.3335 24.8001V63.0447C49.3335 63.0447 49.5335 62.8669 49.6446 62.7558C54.4446 57.9335 57.4224 51.2668 57.4224 43.9335C57.4224 36.6001 54.4446 29.9334 49.6446 25.1112ZM30.8001 57.3557C34.0223 53.8002 35.9779 49.1113 35.9779 43.9335C35.9779 38.7557 34.0223 34.0446 30.8001 30.5112V57.3557ZM16.0001 32.5557V55.3113C16.3556 55.0224 16.7112 54.7113 17.0223 54.378C19.7112 51.7113 21.3556 48.0002 21.3556 43.9335C21.3556 39.8668 19.7112 36.1557 17.0223 33.489C16.7112 33.1557 16.3556 32.8446 16.0001 32.5557ZM43.9335 0H0V87.8892H43.9335C56.0891 87.8892 67.0669 82.9558 75.0225 75.0003C82.9781 67.0447 87.8892 56.0669 87.8892 43.9335C87.8892 19.6667 68.2225 0 43.9335 0ZM71.9558 66.5336C66.1558 72.3336 58.1558 75.9114 49.3335 75.9114V63.0447C44.5335 67.6891 38.0223 70.5336 30.8001 70.5336V57.3557C30.6001 57.6002 30.3779 57.8224 30.1334 58.0669C26.5112 61.6669 21.5334 63.9113 16.0001 63.9113V55.3113C13.4445 57.4446 10.1556 58.7113 6.5778 58.7113V29.1557C10.1556 29.1557 13.4445 30.4223 16.0001 32.5557V23.9556C21.5334 23.9556 26.5112 26.2001 30.1334 29.8001C30.3779 30.0445 30.6001 30.2668 30.8001 30.5112V17.3112C38.0223 17.3112 44.5335 20.1556 49.3335 24.8001V11.9556C58.1558 11.9556 66.1558 15.5334 71.9558 21.3112C77.7336 27.1112 81.3114 35.089 81.3114 43.9335C81.3114 52.778 77.7336 60.7558 71.9558 66.5336ZM57.4224 43.9335C57.4224 36.5779 54.4446 29.9334 49.6446 25.1112C49.5335 25.0001 49.4224 24.889 49.3335 24.8001V63.0447C49.3335 63.0447 49.5335 62.8669 49.6446 62.7558C54.4446 57.9335 57.4224 51.2668 57.4224 43.9335ZM30.8001 30.5112V57.3557C34.0223 53.8002 35.9779 49.1113 35.9779 43.9335C35.9779 38.7557 34.0223 34.0446 30.8001 30.5112ZM21.3556 43.9335C21.3556 39.8446 19.7112 36.1557 17.0223 33.489C16.7112 33.1557 16.3556 32.8446 16.0001 32.5557V55.3113C16.3556 55.0224 16.7112 54.7113 17.0223 54.378C19.7112 51.7113 21.3556 48.0002 21.3556 43.9335ZM30.8001 30.5112V57.3557C34.0223 53.8002 35.9779 49.1113 35.9779 43.9335C35.9779 38.7557 34.0223 34.0446 30.8001 30.5112ZM49.6446 25.1112C49.6446 25.1112 49.4224 24.889 49.3335 24.8001V63.0447C49.3335 63.0447 49.5335 62.8669 49.6446 62.7558C54.4446 57.9335 57.4224 51.2668 57.4224 43.9335C57.4224 36.6001 54.4446 29.9334 49.6446 25.1112ZM49.6446 25.1112C49.6446 25.1112 49.4224 24.889 49.3335 24.8001V63.0447C49.3335 63.0447 49.5335 62.8669 49.6446 62.7558C54.4446 57.9335 57.4224 51.2668 57.4224 43.9335C57.4224 36.6001 54.4446 29.9334 49.6446 25.1112Z" fill="black"/>
</g>
<defs>
<clipPath id="clip0_140_1003">
<rect width="87.8892" height="87.8892" fill="white"/>
</clipPath>
</defs>
</svg>
