<svg width="308" height="82" viewBox="0 0 308 82" fill="none" xmlns="http://www.w3.org/2000/svg">
<path d="M11.8159 71.597V7.49761H28.9674C40.6766 7.49761 48.6752 15.2722 48.6752 26.2725C48.6752 33.0547 44.6347 38.4307 38.6152 40.912C42.2434 43.0624 44.5522 47.1979 45.6242 53.3183L46.8611 60.5967C47.8506 66.3036 48.5927 69.6947 49.4173 71.597H36.8835C36.2238 70.0255 35.4817 67.1307 34.5747 62.0028L33.4202 55.3861C32.2658 48.9348 30.2043 46.0399 26.5761 46.0399H23.9374V71.597H11.8159ZM23.9374 35.2878H27.1533C32.5956 35.2878 36.2238 31.8967 36.2238 27.0169C36.2238 21.889 32.5956 18.3325 27.1533 18.3325H23.9374V35.2878Z" fill="#161616"/>
<path d="M72.5523 72.5895C58.864 72.5895 51.1953 60.7621 51.1953 39.5887C51.1953 18.5806 58.864 6.83594 72.5523 6.83594C86.158 6.83594 93.8267 18.5806 93.8267 39.5887C93.8267 60.7621 86.158 72.5895 72.5523 72.5895ZM63.6467 39.5887C63.6467 53.8973 66.8626 61.9201 72.4698 61.9201C78.1595 61.9201 81.2929 53.8973 81.2929 39.5887C81.2929 25.4454 78.1595 17.5054 72.4698 17.5054C66.8626 17.5054 63.6467 25.4454 63.6467 39.5887Z" fill="#161616"/>
<path d="M117.908 72.5895C104.22 72.5895 96.5511 60.7621 96.5511 39.5887C96.5511 18.5806 104.22 6.83594 117.908 6.83594C131.514 6.83594 139.182 18.5806 139.182 39.5887C139.182 60.7621 131.514 72.5895 117.908 72.5895ZM109.002 39.5887C109.002 53.8973 112.218 61.9201 117.826 61.9201C123.515 61.9201 126.649 53.8973 126.649 39.5887C126.649 25.4454 123.515 17.5054 117.826 17.5054C112.218 17.5054 109.002 25.4454 109.002 39.5887Z" fill="#161616"/>
<path d="M175.031 7.49761V18.3325H163.157V71.597H150.87L150.953 18.3325H138.996V7.49761H175.031Z" fill="#161616"/>
<path d="M196.73 72.6722C185.598 72.6722 178.094 65.063 178.094 53.5665V7.49761H190.546V53.8146C190.546 58.8598 193.102 62.0028 197.06 62.0028C200.935 62.0028 203.244 58.8598 203.244 53.8146V7.49761H215.696V53.5665C215.696 65.063 208.109 72.6722 196.73 72.6722Z" fill="#161616"/>
<path d="M219.349 71.597V7.49761H236.5C248.21 7.49761 256.208 15.2722 256.208 26.2725C256.208 33.0547 252.168 38.4307 246.148 40.912C249.776 43.0624 252.085 47.1979 253.157 53.3183L254.394 60.5967C255.384 66.3036 256.126 69.6947 256.95 71.597H244.417C243.757 70.0255 243.015 67.1307 242.108 62.0028L240.953 55.3861C239.799 48.9348 237.737 46.0399 234.109 46.0399H231.47V71.597H219.349ZM231.47 35.2878H234.686C240.129 35.2878 243.757 31.8967 243.757 27.0169C243.757 21.889 240.129 18.3325 234.686 18.3325H231.47V35.2878Z" fill="#161616"/>
<path d="M258.55 71.597L273.393 7.49761H288.4L302.171 71.597H289.719L286.668 56.4613H273.475L270.342 71.597H258.55ZM275.866 45.1301H284.442L280.237 24.2048L275.866 45.1301Z" fill="#161616"/>
</svg>
