<svg width="340" height="82" viewBox="0 0 340 82" fill="none" xmlns="http://www.w3.org/2000/svg">
<g clip-path="url(#clip0_40000444_8213)">
<g clip-path="url(#clip1_40000444_8213)">
<path d="M-0.12085 15.334H12.9477V32.5295H14.304L15.1856 30.5823L29.6685 15.334H45.0428V17.0971L26.5007 35.8814L45.0428 54.191V55.9541H29.6685L15.1856 41.4711L14.304 39.5336H12.9477V55.9638H-0.12085V15.334Z" fill="#161616"/>
<path d="M45.5929 45.1432V25.8261H58.0124V42.5469C58.0124 45.9666 59.4849 48.1366 62.7206 48.1366C66.3147 48.1366 68.7269 45.6082 68.7269 41.5975V25.8164H81.1464V55.9642H71.1294V53.9008L71.8947 51.3142H70.8969C68.8916 54.017 64.9487 56.7296 58.2352 56.7296C49.5842 56.7296 45.5735 52.1376 45.5735 45.1238L45.5929 45.1432Z" fill="#161616"/>
<path d="M84.4814 40.969C84.4814 31.1361 91.4856 25.0717 100.263 25.0717C106.685 25.0717 110.512 27.7842 112.45 30.5549H113.515L112.75 28.1427L110.338 25.7304V13.6016H122.757V56.0042H112.75V53.7664L113.515 51.3542H112.45C110.444 54.057 106.744 56.7695 100.204 56.7695C91.4275 56.7695 84.4814 50.8213 84.4814 40.9884V40.969ZM103.973 48.6223C108.148 48.6223 110.628 45.3769 110.628 40.9109C110.628 36.4449 108.148 33.1996 103.973 33.1996C99.7975 33.1996 97.085 36.4934 97.085 40.9109C97.085 45.3285 99.6135 48.6223 103.973 48.6223Z" fill="#161616"/>
<path d="M126.07 40.9696C126.07 31.3692 133.258 25.0723 145.27 25.0723C157.283 25.0723 164.345 31.3111 164.345 40.9696C164.345 50.6282 157.283 56.7507 145.27 56.7507C133.258 56.7507 126.07 50.6282 126.07 40.9696ZM145.319 48.7972C149.911 48.7972 152.323 45.3775 152.323 40.9115C152.323 36.4455 149.911 32.958 145.319 32.958C140.727 32.958 138.082 36.3777 138.082 40.9115C138.082 45.4453 140.785 48.7972 145.319 48.7972Z" fill="#161616"/>
<path d="M167.125 35.7898C167.125 22.7212 176.076 14.5352 190.918 14.5352C203.812 14.5352 212.289 20.7159 213.064 30.9072H198.988C198.048 27.0225 194.987 24.8428 190.627 24.8428C184.853 24.8428 181.036 28.8438 181.036 35.8479C181.036 42.852 184.863 46.5043 190.627 46.5043C194.987 46.5043 198.164 44.3245 199.104 40.4398H213.18C212.114 50.4471 204.287 56.8022 190.918 56.8022C176.076 56.8022 167.125 48.8583 167.125 35.7801V35.7898Z" fill="#161616"/>
<path d="M215.206 47.9738C215.206 42.6165 219.149 39.2549 229.282 38.4896L239.531 37.6662V36.8427C239.531 34.0139 237.768 32.3089 233.816 32.3089C229.863 32.3089 228.226 33.9558 228.158 36.6102H215.855C215.855 29.3736 222.278 25.0723 233.874 25.0723C246.419 25.0723 251.893 29.5479 251.893 37.7921V55.9854H242.06V54.0382L242.883 51.3935H241.585C239.531 54.0382 235.463 56.8089 228.042 56.8089C219.623 56.8089 215.206 53.2826 215.206 47.9835V47.9738ZM231.927 49.4463C236.286 49.4463 239.522 46.9759 239.522 43.7306V43.2075L232.159 43.7984C228.807 44.0309 227.567 45.1547 227.567 46.7434C227.567 48.5066 228.982 49.4463 231.927 49.4463Z" fill="#161616"/>
<path d="M256.029 25.8957H266.094V28.0173L265.096 32.0764H266.152C267.741 28.3661 271.451 25.0723 277.342 25.0723C279.172 25.0723 280.994 25.3726 282.35 25.8957V36.4358C280.703 35.9611 278.814 35.6124 277.051 35.6124C271.81 35.6124 268.458 38.7899 268.458 44.215V55.9951H256.039V25.9054L256.029 25.8957Z" fill="#161616"/>
<path d="M284.014 40.969C284.014 31.1361 291.019 25.0717 299.796 25.0717C306.218 25.0717 310.045 27.7842 311.983 30.5549H313.048L312.283 28.1427L309.871 25.7304V13.6016H322.29V56.0042H312.283V53.7664L313.048 51.3542H311.983C309.977 54.057 306.277 56.7695 299.737 56.7695C290.96 56.7695 284.014 50.8213 284.014 40.9884V40.969ZM303.506 48.6223C307.681 48.6223 310.161 45.3769 310.161 40.9109C310.161 36.4449 307.681 33.1996 303.506 33.1996C299.331 33.1996 296.618 36.4934 296.618 40.9109C296.618 45.3285 299.146 48.6223 303.506 48.6223Z" fill="#161616"/>
<path d="M126.75 70.008C127.36 70.008 127.932 70.2405 128.319 70.6571C128.561 70.9089 134.035 76.5278 144.381 76.5278C154.728 76.5278 160.221 70.8993 160.443 70.6571C161.16 69.9014 162.439 69.7852 163.311 70.4149C164.183 71.0349 164.309 72.1586 163.592 72.9143C163.321 73.2049 156.733 80.0831 144.381 80.0831C132.03 80.0831 125.452 73.2049 125.171 72.9143C124.464 72.1586 124.589 71.0349 125.461 70.4149C125.83 70.1533 126.285 70.008 126.75 70.008Z" fill="#161616"/>
<path d="M144.38 81.3028C131.573 81.3028 124.589 74.0662 124.298 73.7562C123.717 73.1362 123.445 72.3515 123.523 71.5377C123.6 70.7143 124.056 69.9586 124.763 69.4549C126.081 68.5152 128.115 68.7089 129.2 69.8521C129.403 70.0652 134.596 75.3449 144.38 75.3449C154.165 75.3449 159.357 70.0749 159.58 69.8424C160.694 68.6411 162.651 68.4764 164.007 69.4452C164.715 69.9489 165.16 70.7046 165.247 71.528C165.325 72.3418 165.054 73.1362 164.463 73.7465C164.182 74.0468 157.313 81.2931 144.38 81.2931V81.3028ZM126.759 71.2277C126.536 71.2277 126.323 71.2955 126.158 71.4021C126.022 71.499 125.935 71.6346 125.926 71.7605C125.916 71.8768 125.955 71.993 126.061 72.0996C126.323 72.3708 132.61 78.8906 144.39 78.8906C156.17 78.8906 162.651 72.1771 162.719 72.1093C162.826 71.993 162.874 71.8768 162.864 71.7702C162.855 71.6346 162.767 71.5086 162.622 71.4021C162.244 71.1308 161.634 71.1696 161.343 71.4893C161.092 71.7508 155.269 77.7475 144.4 77.7475C133.53 77.7475 128.086 72.148 127.476 71.5086C127.311 71.3343 127.04 71.2277 126.768 71.2277H126.759Z" fill="#161616"/>
<path d="M131.496 61.1152C132.107 61.1152 132.678 61.3477 133.066 61.7545C136.011 64.4477 140.118 65.9299 144.381 65.8524C148.643 65.9299 152.751 64.4477 155.706 61.7545C156.452 61.0183 157.74 60.9505 158.573 61.5995C159.377 62.2195 159.493 63.2755 158.835 64.0118C155.105 67.5187 149.854 69.4756 144.381 69.4078C138.907 69.4853 133.647 67.5187 129.927 64.0118C129.22 63.2561 129.346 62.1324 130.217 61.5124C130.576 61.2508 131.031 61.1152 131.506 61.1055L131.496 61.1152Z" fill="#161616"/>
<path d="M144.049 70.6183C138.421 70.6183 132.976 68.5452 129.101 64.8929C128.472 64.2245 128.191 63.4301 128.278 62.6163C128.355 61.7929 128.811 61.0373 129.518 60.5335C130.826 59.6035 132.87 59.7876 133.945 60.9307C136.6 63.3429 140.446 64.6992 144.369 64.6507C144.476 64.6507 144.573 64.6507 144.679 64.6507C148.564 64.6507 152.264 63.2751 154.9 60.8629C156.043 59.7391 158 59.6229 159.317 60.6401C159.976 61.1535 160.383 61.8704 160.46 62.6648C160.538 63.4398 160.286 64.2051 159.753 64.8058C155.8 68.5258 150.356 70.6086 144.689 70.6086C144.485 70.6086 144.272 70.6086 144.059 70.6086L144.049 70.6183ZM131.494 62.316C131.281 62.316 131.058 62.3839 130.903 62.4904C130.758 62.5873 130.681 62.7229 130.661 62.8489C130.651 62.9651 130.69 63.0814 130.797 63.1879C134.236 66.4236 139.089 68.303 144.359 68.2061C149.513 68.2836 154.512 66.4333 158.019 63.1395C158.019 63.1201 158.067 63.0135 158.058 62.8973C158.048 62.7714 157.97 62.6454 157.835 62.5485C157.476 62.2676 156.866 62.2967 156.546 62.6067C153.349 65.5323 148.854 67.1792 144.359 67.0533C144.243 67.0533 144.137 67.0533 144.02 67.0533C139.632 67.0533 135.35 65.4548 132.26 62.6357C132.037 62.4032 131.775 62.3063 131.504 62.3063L131.494 62.316Z" fill="#161616"/>
<path d="M162.022 11.5458C161.412 11.5458 160.84 11.3133 160.453 10.8967C160.211 10.6449 154.737 5.02605 144.391 5.02605C134.045 5.02605 128.552 10.6546 128.329 10.8967C127.612 11.6524 126.333 11.7686 125.461 11.1389C124.589 10.5189 124.464 9.39516 125.18 8.63953C125.452 8.3489 132.039 1.4707 144.391 1.4707C156.743 1.4707 163.32 8.3489 163.601 8.63953C164.309 9.39516 164.183 10.5189 163.311 11.1389C162.943 11.4005 162.487 11.5458 162.022 11.5458Z" fill="#161616"/>
<path d="M126.749 12.7608C126.051 12.7608 125.354 12.5573 124.763 12.1311C124.056 11.6273 123.61 10.862 123.523 10.0385C123.445 9.22478 123.717 8.44009 124.308 7.82008C124.589 7.51008 131.515 0.273438 144.39 0.273438C157.265 0.273438 164.182 7.51977 164.472 7.82008C165.054 8.44009 165.325 9.22478 165.247 10.0385C165.17 10.862 164.715 11.6176 164.007 12.1214C163.436 12.5283 162.738 12.7511 162.012 12.7511C160.975 12.6639 160.181 12.3829 159.571 11.7242C159.357 11.5014 154.213 6.23132 144.38 6.23132C134.547 6.23132 129.403 11.5014 129.181 11.7339C128.551 12.412 127.65 12.7608 126.739 12.7608H126.749ZM144.39 2.67596C132.552 2.67596 126.323 9.18603 126.061 9.46698C125.955 9.57354 125.906 9.68979 125.925 9.80604C125.935 9.94167 126.022 10.0676 126.168 10.1742C126.546 10.4454 127.146 10.4067 127.456 10.0773C127.698 9.81573 133.53 3.82879 144.4 3.82879C155.269 3.82879 161.082 9.81573 161.334 10.0773C161.498 10.242 161.76 10.3485 162.022 10.3485C162.244 10.3485 162.457 10.2807 162.622 10.1742C162.758 10.0773 162.845 9.94167 162.855 9.81573C162.864 9.67041 162.787 9.55416 162.719 9.47666C162.457 9.19572 156.228 2.68565 144.39 2.68565V2.67596Z" fill="#161616"/>
<path d="M157.274 20.455C156.664 20.455 156.092 20.2224 155.704 19.8156C152.759 17.1224 148.652 15.6402 144.389 15.7177C140.127 15.6402 136.019 17.1224 133.065 19.8156C132.319 20.5518 131.03 20.6196 130.197 19.9706C129.393 19.3506 129.277 18.2946 129.935 17.5584C133.665 14.0514 138.916 12.0946 144.389 12.1624C149.863 12.0849 155.123 14.0514 158.843 17.5584C159.55 18.314 159.425 19.4378 158.553 20.0578C158.194 20.3193 157.739 20.455 157.264 20.4646L157.274 20.455Z" fill="#161616"/>
<path d="M157.272 21.656C156.333 21.656 155.451 21.2879 154.831 20.6388C152.177 18.2169 148.311 16.8025 144.407 16.9187C140.261 16.8316 136.589 18.2266 133.877 20.7066C132.734 21.8304 130.767 21.9466 129.459 20.9294C128.801 20.416 128.394 19.6991 128.316 18.9047C128.239 18.1297 128.491 17.3741 129.023 16.7637C133.044 12.9759 138.566 10.8543 144.398 10.9609C144.504 10.9609 144.601 10.9609 144.708 10.9609C150.346 10.9609 155.79 13.034 159.656 16.6862C160.285 17.3547 160.566 18.1394 160.489 18.9628C160.411 19.7863 159.956 20.5419 159.249 21.0457C158.668 21.4622 157.98 21.6754 157.263 21.6754L157.272 21.656ZM144.756 14.5065C149.145 14.5065 153.427 16.105 156.527 18.9241C156.914 19.331 150.104 13.3881 157.873 19.0694C158.009 18.9725 158.096 18.8466 158.106 18.7109C158.115 18.5947 158.077 18.4784 157.97 18.3719C154.589 15.1943 149.745 13.3537 144.688 13.3537C144.504 13.3537 144.32 13.3537 144.126 13.3537C139.04 13.3537 134.187 15.1943 130.758 18.4203C130.758 18.4397 130.709 18.5463 130.719 18.6625C130.728 18.7884 130.816 18.9144 130.942 19.0113C131.3 19.2825 131.92 19.2535 132.23 18.9434C135.427 16.0178 139.932 14.4581 144.417 14.4968C144.533 14.4968 144.64 14.4968 144.756 14.4968V14.5065Z" fill="#161616"/>
<path d="M333.585 55.9799C336.282 55.9799 338.468 53.794 338.468 51.0974C338.468 48.4008 336.282 46.2148 333.585 46.2148C330.889 46.2148 328.703 48.4008 328.703 51.0974C328.703 53.794 330.889 55.9799 333.585 55.9799Z" fill="#161616"/>
<path d="M333.586 57.3217C330.156 57.3217 327.366 54.5317 327.366 51.1023C327.366 47.6728 330.156 44.8828 333.586 44.8828C337.015 44.8828 339.805 47.6728 339.805 51.1023C339.805 54.5317 337.015 57.3217 333.586 57.3217ZM333.586 47.5566C331.629 47.5566 330.04 49.1454 330.04 51.1023C330.04 53.0592 331.629 54.6479 333.586 54.6479C335.543 54.6479 337.132 53.0592 337.132 51.1023C337.132 49.1454 335.543 47.5566 333.586 47.5566Z" fill="#161616"/>
<path d="M178.47 61.4902V70.1413L183.246 65.6753H185.29L181.231 69.5309L185.716 76.0798H183.779L180.088 70.49L178.48 71.9819V76.0798H176.852V61.4902H178.48H178.47Z" fill="#161616"/>
<path d="M196.054 65.6797V76.0842H194.426V74.8442H194.387C193.835 75.5804 192.731 76.3748 190.958 76.3748C189.059 76.3748 187.47 75.3382 187.47 72.9454V65.6797H189.098V72.5385C189.098 73.8851 189.728 74.941 191.365 74.941C193.196 74.941 194.426 73.7785 194.426 72.1704V65.6797H196.054Z" fill="#161616"/>
<path d="M208.355 61.4902V76.0798H206.727V74.7913H206.688C206.078 75.5857 205.1 76.3607 203.424 76.3607C200.808 76.3607 198.725 74.2972 198.725 70.8775C198.725 67.4578 200.808 65.3943 203.424 65.3943C205.1 65.3943 206.078 66.1306 206.688 67.0219H206.727V61.4902H208.355ZM206.727 70.8775C206.727 68.4266 205.526 66.8184 203.579 66.8184C201.438 66.8184 200.353 68.8334 200.353 70.8775C200.353 72.9216 201.438 74.9366 203.579 74.9366C205.516 74.9366 206.727 73.3285 206.727 70.8775Z" fill="#161616"/>
<path d="M216.123 76.3726C212.936 76.3726 211.018 74.1251 211.018 70.8894C211.018 67.6538 212.936 65.4062 216.123 65.4062C219.311 65.4062 221.2 67.6538 221.2 70.8894C221.2 74.1251 219.282 76.3726 216.123 76.3726ZM216.123 74.9388C218.448 74.9388 219.572 73.0982 219.572 70.8797C219.572 68.6613 218.448 66.8206 216.123 66.8206C213.798 66.8206 212.655 68.6613 212.655 70.8797C212.655 73.0982 213.779 74.9388 216.123 74.9388Z" fill="#161616"/>
<path d="M228.33 66.8186C225.859 66.8186 224.92 68.9208 224.92 70.8777C224.92 72.8346 225.859 74.9368 228.33 74.9368C230.432 74.9368 231.188 73.4934 231.265 72.2437H232.893C232.747 74.6074 230.897 76.3609 228.32 76.3609C225.278 76.3609 223.282 74.1424 223.282 70.8777C223.282 67.613 225.278 65.3945 228.32 65.3945C230.887 65.3945 232.65 67.1092 232.893 69.4343H231.265C231.178 68.2911 230.413 66.8186 228.33 66.8186Z" fill="#161616"/>
<path d="M239.935 66.8186C237.959 66.8186 237.3 67.3902 237.203 68.9014H235.576C235.682 66.9058 236.922 65.3945 239.945 65.3945C241.921 65.3945 243.694 66.1695 243.694 68.6786V73.7356C243.694 74.5493 243.839 75.0046 244.876 74.8787V76.0218C244.45 76.1671 244.227 76.1865 243.917 76.1865C242.938 76.1865 242.347 75.925 242.057 74.7818H242.018C241.369 75.7603 240.206 76.3706 238.492 76.3706C236.389 76.3706 235.062 75.1693 235.062 73.4159C235.062 71.0521 236.816 70.4418 239.509 69.9283C241.262 69.599 242.057 69.3761 242.057 68.3396C242.057 67.5258 241.611 66.8283 239.935 66.8283V66.8186ZM242.057 72.0693V70.3352C241.747 70.6452 240.749 70.9262 239.644 71.149C237.629 71.5752 236.69 72.0887 236.69 73.3287C236.69 74.3459 237.3 74.9368 238.647 74.9368C240.584 74.9368 242.047 74.0552 242.047 72.0596L242.057 72.0693Z" fill="#161616"/>
<path d="M252.627 65.4527V67.0802H252.588C250.321 66.712 248.752 68.3008 248.752 70.529V76.08H247.125V65.6755H248.752V67.7389H248.791C249.343 66.373 250.176 65.3945 251.668 65.3945C252.056 65.3945 252.346 65.4139 252.627 65.4527Z" fill="#161616"/>
<path d="M263.768 61.4902V76.0798H262.14V74.7913H262.102C261.491 75.5857 260.513 76.3607 258.837 76.3607C256.221 76.3607 254.138 74.2972 254.138 70.8775C254.138 67.4578 256.221 65.3943 258.837 65.3943C260.513 65.3943 261.491 66.1306 262.102 67.0219H262.14V61.4902H263.768ZM262.131 70.8775C262.131 68.4266 260.929 66.8184 258.982 66.8184C256.841 66.8184 255.756 68.8334 255.756 70.8775C255.756 72.9216 256.841 74.9366 258.982 74.9366C260.92 74.9366 262.131 73.3285 262.131 70.8775Z" fill="#161616"/>
<path d="M266.8 75.1003C266.8 74.4222 267.294 73.9766 267.924 73.9766C268.554 73.9766 269.048 74.4222 269.048 75.1003C269.048 75.7785 268.563 76.2241 267.924 76.2241C267.285 76.2241 266.8 75.7978 266.8 75.1003Z" fill="#161616"/>
<path d="M276.025 66.8186C273.555 66.8186 272.615 68.9208 272.615 70.8777C272.615 72.8346 273.555 74.9368 276.025 74.9368C278.127 74.9368 278.883 73.4934 278.96 72.2437H280.588C280.443 74.6074 278.592 76.3609 276.015 76.3609C272.973 76.3609 270.978 74.1424 270.978 70.8777C270.978 67.613 272.973 65.3945 276.015 65.3945C278.583 65.3945 280.346 67.1092 280.588 69.4343H278.96C278.873 68.2911 278.108 66.8186 276.025 66.8186Z" fill="#161616"/>
<path d="M287.695 76.3726C284.518 76.3726 282.59 74.1251 282.59 70.8894C282.59 67.6538 284.508 65.4062 287.695 65.4062C290.882 65.4062 292.772 67.6538 292.772 70.8894C292.772 74.1251 290.853 76.3726 287.695 76.3726ZM287.695 74.9388C290.02 74.9388 291.144 73.0982 291.144 70.8797C291.144 68.6613 290.02 66.8206 287.695 66.8206C285.37 66.8206 284.227 68.6613 284.227 70.8797C284.227 73.0982 285.351 74.9388 287.695 74.9388Z" fill="#161616"/>
<path d="M309.446 68.8181V76.0838H307.819V69.225C307.819 67.8784 307.557 66.8224 305.92 66.8224C304.283 66.8224 303.275 67.985 303.275 69.5931V76.0838H301.648V69.225C301.648 67.8784 301.377 66.8224 299.749 66.8224C298.122 66.8224 297.104 67.985 297.104 69.5931V76.0838H295.477V65.6793H297.104V66.9193H297.143C297.695 66.1831 298.596 65.3887 300.166 65.3887C301.735 65.3887 302.51 66.0184 302.946 67.1809H302.985C303.692 66.2024 304.777 65.3887 306.346 65.3887C308.449 65.3887 309.466 66.6287 309.466 68.8181H309.446Z" fill="#161616"/>
<path d="M312.421 75.1003C312.421 74.4222 312.915 73.9766 313.544 73.9766C314.174 73.9766 314.668 74.4222 314.668 75.1003C314.668 75.7785 314.184 76.2241 313.544 76.2241C312.905 76.2241 312.421 75.7978 312.421 75.1003Z" fill="#161616"/>
<path d="M321.953 66.8186C319.977 66.8186 319.318 67.3902 319.222 68.9014H317.594C317.701 66.9058 318.941 65.3945 321.963 65.3945C323.939 65.3945 325.712 66.1695 325.712 68.6786V73.7356C325.712 74.5493 325.858 75.0046 326.894 74.8787V76.0218C326.468 76.1671 326.245 76.1865 325.935 76.1865C324.957 76.1865 324.366 75.925 324.075 74.7818H324.036C323.387 75.7603 322.225 76.3706 320.51 76.3706C318.408 76.3706 317.081 75.1693 317.081 73.4159C317.081 71.0521 318.834 70.4418 321.527 69.9283C323.281 69.599 324.075 69.3761 324.075 68.3396C324.075 67.5258 323.629 66.8283 321.953 66.8283V66.8186ZM324.075 72.0693V70.3352C323.765 70.6452 322.767 70.9262 321.663 71.149C319.648 71.5752 318.708 72.0887 318.708 73.3287C318.708 74.3459 319.328 74.9368 320.665 74.9368C322.603 74.9368 324.075 74.0552 324.075 72.0596V72.0693Z" fill="#161616"/>
<path d="M337.655 65.6797V76.0842H336.028V74.8442H335.989C335.437 75.5804 334.333 76.3748 332.56 76.3748C330.661 76.3748 329.072 75.3382 329.072 72.9454V65.6797H330.7V72.5385C330.7 73.8851 331.329 74.941 332.967 74.941C334.798 74.941 336.028 73.7785 336.028 72.1704V65.6797H337.655Z" fill="#161616"/>
</g>
</g>
<defs>
<clipPath id="clip0_40000444_8213">
<rect width="339.31" height="81.0293" fill="white"/>
</clipPath>
<clipPath id="clip1_40000444_8213">
<rect width="513.185" height="81.0293" fill="white"/>
</clipPath>
</defs>
</svg>
