<svg width="208" height="71" viewBox="0 0 208 71" fill="none" xmlns="http://www.w3.org/2000/svg">
<path d="M208 2.01018V35.8783C208 36.9851 207.093 37.8885 205.981 37.8885H172.513C171.402 37.8885 170.494 38.792 170.494 39.8987V68.9898C170.494 70.0965 169.587 71 168.475 71H141.914C141.381 71 140.871 70.7854 140.485 70.4128L107.822 37.8885L107.709 37.7756C106.438 36.5107 104.261 37.4029 104.261 39.1985V68.9898C104.261 70.0288 103.467 70.8871 102.446 70.9887C102.412 70.9887 102.378 70.9887 102.344 70.9887C102.31 70.9887 102.276 70.9887 102.242 70.9887H75.7034C75.1703 70.9887 74.66 70.7741 74.2744 70.4015L66.2107 62.372L41.6113 37.8772L41.4979 37.7643C40.2277 36.4994 38.0502 37.3916 38.0502 39.1872V68.9785C38.0502 70.0853 37.1429 70.9887 36.0314 70.9887H2.01876C0.907306 70.9887 0 70.0853 0 68.9785V35.1104C0 34.0037 0.907306 33.1002 2.01876 33.1002H35.5097C36.6212 33.1002 37.5285 32.1968 37.5285 31.09V2.01018C37.5285 0.903452 38.4358 0 39.5472 0H65.757C66.2901 0 66.8004 0.21457 67.186 0.587244L99.8491 33.1115L100.291 33.5519C101.562 34.8168 103.739 33.9246 103.739 32.129V2.01018C103.739 1.31 104.102 0.688882 104.658 0.327501C104.703 0.293622 104.749 0.271035 104.794 0.248449C104.896 0.191983 104.998 0.146811 105.1 0.112931C105.157 0.0903452 105.202 0.079052 105.259 0.0677589C105.293 0.0677589 105.316 0.0564657 105.35 0.0451726C105.474 0.0225863 105.61 0 105.747 0H131.956C132.489 0 133 0.21457 133.385 0.587244L166.491 33.5519C167.761 34.8168 169.938 33.9246 169.938 32.129V2.01018C169.938 0.903452 170.846 0 171.957 0H205.97C207.081 0 207.989 0.903452 207.989 2.01018H208Z" fill="#161616"/>
</svg>
